<svg id="Layer_1" data-name="Layer 1" xmlns="http://www.w3.org/2000/svg" viewBox="0 0 24 23.96"><g id="F548_Car_garage_transport" data-name="F548, Car, garage, transport"><path d="M15.23,17.48a.76.76,0,0,1,.76.76.7.7,0,0,1-.76.72.74.74,0,0,1-.76-.76A.78.78,0,0,1,15.23,17.48Z" transform="translate(0 -0.02)" style="fill:#fff"/><path d="M8.77,17.48a.76.76,0,0,1,.76.76.73.73,0,0,1-.76.72A.76.76,0,0,1,8,18.2.73.73,0,0,1,8.77,17.48Z" transform="translate(0 -0.02)" style="fill:#fff"/><rect x="14.35" y="21.85" width="1.55" height="1.56" style="fill:#fff"/><rect x="8.09" y="21.85" width="1.55" height="1.56" style="fill:#fff"/><path d="M17.78,20a.1.1,0,0,0,.16,0,1.94,1.94,0,0,1-1.67,1.88H7.69A2,2,0,0,1,6,20H6c0,.08.08.08.16,0a2.05,2.05,0,0,0,1,.4h9.72A1.73,1.73,0,0,0,17.78,20Z" transform="translate(0 -0.02)" style="fill:#a1c6e9"/><path d="M18,19v.87a.87.87,0,0,1-.2.16,1.72,1.72,0,0,1-.92.36H7.14a2.05,2.05,0,0,1-1-.4s-.12-.08-.16-.12V19H6V17a1.63,1.63,0,0,1,1.47-1.31h0v0l.32.24H16l.47-.28A1.55,1.55,0,0,1,17.94,17v2h0S18,19,18,19Zm-2-.8a.76.76,0,0,0-.76-.76.76.76,0,1,0,.76.76Zm-6.46,0a.76.76,0,0,0-.76-.76.76.76,0,0,0,0,1.52A.76.76,0,0,0,9.53,18.2Z" transform="translate(0 -0.02)" style="fill:#a1c6e9"/><path d="M16.07,12.82l.43,2.83-.59.28H7.81l-.32-.24.44-2.83c0-.72.88-1.32,2-1.32h4.18C15.19,11.5,16.07,12.1,16.07,12.82Z" transform="translate(0 -0.02)" style="fill:#fff"/><rect x="4.03" y="4.51" width="15.95" height="1.99" style="fill:#a1c6e9"/><rect x="4.03" y="6.5" width="15.95" height="1.99" style="fill:#fff"/><rect x="4.03" y="2.51" width="15.95" height="1.99" style="fill:#fff"/><polygon points="23.48 0.52 23.48 2.51 21.97 2.51 19.97 2.51 4.03 2.51 2.03 2.51 0.56 2.51 0.56 0.52 23.48 0.52" style="fill:#a1c6e9"/><polygon points="21.97 2.51 21.97 23.44 19.97 23.44 19.97 8.49 19.97 6.5 19.97 4.5 19.97 2.51 21.97 2.51" style="fill:#a1c6e9"/><polygon points="4.03 8.49 4.03 23.44 2.03 23.44 2.03 2.51 4.03 2.51 4.03 4.5 4.03 6.5 4.03 8.49" style="fill:#a1c6e9"/><path d="M4,23.94a.53.53,0,0,1-.52-.52V8.51A.53.53,0,0,1,4,8a.52.52,0,0,1,.51.52v15A.51.51,0,0,1,4,23.94Z" transform="translate(0 -0.02)" style="fill:#2c80c3"/><path d="M2,23.94a.53.53,0,0,1-.52-.52V2.53a.52.52,0,0,1,1,0V23.46A.52.52,0,0,1,2,23.94Z" transform="translate(0 -0.02)" style="fill:#2c80c3"/><path d="M23.48,3H22a.52.52,0,1,1,0-1h1V1H1V2H4a.52.52,0,0,1,0,1H.52A.53.53,0,0,1,0,2.53v-2A.53.53,0,0,1,.52,0H23.44A.53.53,0,0,1,24,.54v2A.52.52,0,0,1,23.48,3Z" transform="translate(0 -0.02)" style="fill:#2c80c3"/><path d="M4,5a.53.53,0,0,1-.52-.51v-2A.53.53,0,0,1,4,2H20a.52.52,0,0,1,0,1H4.54V4.53A.51.51,0,0,1,4,5Z" transform="translate(0 -0.02)" style="fill:#2c80c3"/><path d="M4,7a.53.53,0,0,1-.52-.52v-2A.53.53,0,0,1,4,4H20a.52.52,0,1,1,0,1H4.54V6.52A.51.51,0,0,1,4,7Z" transform="translate(0 -0.02)" style="fill:#2c80c3"/><path d="M20,9H4a.53.53,0,0,1-.52-.52v-2A.53.53,0,0,1,4,6H20a.52.52,0,0,1,0,1H4.54V8H20a.5.5,0,1,1,0,1Z" transform="translate(0 -0.02)" style="fill:#2c80c3"/><path d="M22,23.94a.53.53,0,0,1-.52-.52V3h-1V23.46a.53.53,0,0,1-.52.52.52.52,0,0,1-.51-.52V2.53A.52.52,0,0,1,19.93,2h2a.53.53,0,0,1,.52.52V23.46A.47.47,0,0,1,22,23.94Z" transform="translate(0 -0.02)" style="fill:#2c80c3"/><path d="M9.65,23.94a.53.53,0,0,1-.52-.52V21.87a.52.52,0,1,1,1,0v1.55A.53.53,0,0,1,9.65,23.94Z" transform="translate(0 -0.02)" style="fill:#2c80c3"/><path d="M8.09,23.94a.53.53,0,0,1-.52-.52V21.87a.52.52,0,0,1,1,0v1.55A.53.53,0,0,1,8.09,23.94Z" transform="translate(0 -0.02)" style="fill:#2c80c3"/><path d="M15.91,23.94a.53.53,0,0,1-.52-.52V21.87a.52.52,0,0,1,1,0v1.55A.56.56,0,0,1,15.91,23.94Z" transform="translate(0 -0.02)" style="fill:#2c80c3"/><path d="M14.35,23.94a.53.53,0,0,1-.52-.52V21.87a.52.52,0,1,1,1,0v1.55A.56.56,0,0,1,14.35,23.94Z" transform="translate(0 -0.02)" style="fill:#2c80c3"/><path d="M15.91,22.39H7.73A2.43,2.43,0,0,1,5.54,20a.77.77,0,0,1,.12-.4A.46.46,0,0,1,6,19.44a.73.73,0,0,1,.24.07.6.6,0,0,1,.32.2.48.48,0,0,1,0,.56,1.3,1.3,0,0,0,1.11,1.08h8.54a1.3,1.3,0,0,0,1.11-1.08.54.54,0,0,1,0-.64.38.38,0,0,1,.36-.15.55.55,0,0,1,.36,0,.44.44,0,0,1,.32.51,2.42,2.42,0,0,1-2.19,2.32l-.32.08Z" transform="translate(0 -0.02)" style="fill:#2c80c3"/><path d="M7.81,16.41a.58.58,0,0,1-.28-.08l-.31-.24a.46.46,0,0,1-.2-.48v0l.44-2.79c0-1,1.11-1.8,2.47-1.8h4.18a2.24,2.24,0,0,1,2.47,1.8L17,15.57a.55.55,0,0,1-.24.52l-.47.28a.57.57,0,0,1-.24.08H16a.53.53,0,0,1-.52-.52.56.56,0,0,1,.48-.52l0,0-.4-2.47v-.08c0-.4-.64-.84-1.48-.84H9.89c-.84,0-1.48.44-1.48.84v.08L8,15.45l.08,0a.47.47,0,0,1,.12.68A.44.44,0,0,1,7.81,16.41Z" transform="translate(0 -0.02)" style="fill:#2c80c3"/><path d="M16.86,20.91H7.06a2.18,2.18,0,0,1-1.2-.52c-.08,0-.12-.12-.2-.16a.6.6,0,0,1-.16-.36V16.92a2.06,2.06,0,0,1,2-1.79,1.17,1.17,0,0,1,.35.08l0,0,.16.16h7.78l.52-.2a.47.47,0,0,1,.23,0,2.06,2.06,0,0,1,2,1.79v2.95a.49.49,0,0,1-.16.36,1.06,1.06,0,0,1-.24.2,2.75,2.75,0,0,1-1.16.48S16.9,20.91,16.86,20.91Zm-9.68-1h9.68a1.31,1.31,0,0,0,.64-.28V16.92c0-.28-.4-.71-.92-.79l-.47.2a.36.36,0,0,1-.2,0H7.81a.45.45,0,0,1-.32-.12l-.11-.08c-.48.12-.84.51-.84.75v2.75A1.53,1.53,0,0,0,7.18,19.91Z" transform="translate(0 -0.02)" style="fill:#2c80c3"/><path d="M8.77,19.48A1.24,1.24,0,1,1,10,18.24,1.27,1.27,0,0,1,8.77,19.48Zm0-1.52A.24.24,0,1,0,9,18.2.26.26,0,0,0,8.77,18Z" transform="translate(0 -0.02)" style="fill:#2c80c3"/><path d="M15.23,19.48a1.24,1.24,0,1,1,1.23-1.24A1.25,1.25,0,0,1,15.23,19.48Zm0-1.52a.24.24,0,1,0,.24.24C15.51,18.08,15.39,18,15.23,18Z" transform="translate(0 -0.02)" style="fill:#2c80c3"/><path d="M23.48,23.94H.56a.52.52,0,0,1,0-1H23.48a.53.53,0,0,1,.52.52A.59.59,0,0,1,23.48,23.94Z" transform="translate(0 -0.02)" style="fill:#2c80c3"/></g></svg>