<svg id="Layer_1" data-name="Layer 1" xmlns="http://www.w3.org/2000/svg" viewBox="0 0 18.41 24"><g id="B_-_119_Support_Business_consulting_customer_man_online_consultant_service" data-name="B - 119, Support, Business, consulting, customer, man, online consultant, service"><path d="M16.29,7.75h.83V9.07l-1.44.57a10.17,10.17,0,0,0,.83-3.11A7,7,0,0,1,16.29,7.75Z" transform="translate(-2.79)" style="fill:#fff"/><path d="M17.91,5.52V7.75H16.29a6.58,6.58,0,0,0,.18-1.27V5.65h0V5.47h1.44Z" transform="translate(-2.79)" style="fill:#a1c6e9"/><path d="M7.75,7.75H6.18V5.52H7.62a3.39,3.39,0,0,0,0,.61A7.38,7.38,0,0,0,7.75,7.75Z" transform="translate(-2.79)" style="fill:#a1c6e9"/><path d="M16.47,5.52v.17a4.43,4.43,0,0,0-4.43-4A4.48,4.48,0,0,0,7.62,5.52H6.88C7.18,2.54,9.37.18,12,.18s4.87,2.32,5.17,5.34Z" transform="translate(-2.79)" style="fill:#a1c6e9"/><path d="M15.68,9.64c-.75,1.62-2,3-3.64,3C9.77,12.66,8.28,10,7.8,7.8h0a6.77,6.77,0,0,1-.18-1.58,2.88,2.88,0,0,1,0-.61h0A4.48,4.48,0,0,1,12,1.8a4.43,4.43,0,0,1,4.43,4h0v.83A9.08,9.08,0,0,1,15.68,9.64Z" transform="translate(-2.79)" style="fill:#fff"/><polygon points="6.53 13.14 9.16 16.69 7.76 18.13 5.53 14.06 6.53 13.14" style="fill:#fff"/><polygon points="12.8 14.06 10.48 17.91 9.16 16.69 11.79 13.14 12.8 14.06" style="fill:#fff"/><path d="M15.59,14.06c6.05,3.46,5.34,1.84,5.34,8.71a39.65,39.65,0,0,1-18,0c0-6.92-.7-5.25,5.35-8.71l2.23,4.07,1.4-1.4L13.23,18Z" transform="translate(-2.79)" style="fill:#a1c6e9"/><path d="M15.59,19.8H13.53a.19.19,0,0,1-.17-.18.18.18,0,0,1,.17-.17h2.06a.18.18,0,0,1,.18.17A.17.17,0,0,1,15.59,19.8Z" transform="translate(-2.79)" style="fill:#5180c1"/><path d="M15.59,21.07H13.53a.19.19,0,0,1-.17-.18.18.18,0,0,1,.17-.17h2.06a.18.18,0,0,1,.18.17A.17.17,0,0,1,15.59,21.07Z" transform="translate(-2.79)" style="fill:#5180c1"/><path d="M11.91,24a38.81,38.81,0,0,1-9-1.05c-.08,0-.13-.09-.13-.18v-2c0-3.89,0-4,3.11-5.65.66-.35,1.45-.74,2.37-1.31a.21.21,0,0,1,.26.09.21.21,0,0,1-.09.26c-1,.53-1.75,1-2.36,1.31-1.49.79-2.24,1.19-2.59,1.84s-.35,1.58-.3,3.46v1.8a39.9,39.9,0,0,0,17.6,0V20.85c.05-1.89.05-2.85-.3-3.51s-1.1-1.05-2.63-1.84c-.61-.35-1.4-.74-2.32-1.27a.21.21,0,0,1-.09-.26.21.21,0,0,1,.26-.09c.92.53,1.71,1,2.32,1.27,3.16,1.71,3.2,1.76,3.16,5.7v1.92A.17.17,0,0,1,21,23,40.7,40.7,0,0,1,11.91,24Z" transform="translate(-2.79)" style="fill:#5180c1"/><path d="M16.47,6a.19.19,0,0,1-.18-.18V5.74c0-.09.09-.22.18-.22s.22.09.22.17v.13a.2.2,0,0,1-.22.18Z" transform="translate(-2.79)" style="fill:#5180c1"/><path d="M12,12.83c-2.27,0-3.89-2.54-4.46-5a7.64,7.64,0,0,1-.22-1.62,3.66,3.66,0,0,1,0-.66A4.86,4.86,0,0,1,8.93,2.67a4.68,4.68,0,0,1,6.22.09,4.58,4.58,0,0,1,1.49,3,.18.18,0,0,1,0,.13.17.17,0,0,1,0,.13v.61a8.63,8.63,0,0,1-.83,3.2C15.33,10.86,14.1,12.83,12,12.83ZM12,1.88a4.25,4.25,0,0,0-4.2,3.64,3.13,3.13,0,0,0,0,.61A9.3,9.3,0,0,0,8,7.66C8.5,10,10,12.39,12,12.39c1.84,0,3-1.79,3.46-2.89a8.66,8.66,0,0,0,.79-3.06V6a.16.16,0,0,1,.05-.14c-.05,0-.05,0-.05-.08A4.28,4.28,0,0,0,12,1.88Z" transform="translate(-2.79)" style="fill:#5180c1"/><path d="M13.27,18.13a.17.17,0,0,1-.13,0l-1.31-1.23a.21.21,0,0,1-.05-.26L14.41,13a.21.21,0,0,1,.13-.09s.13,0,.13,0l1,.92a.2.2,0,0,1,0,.27L13.36,18c0,.09,0,.09-.09.13Zm-1-1.44,1,.92,2.14-3.51-.74-.65Z" transform="translate(-2.79)" style="fill:#5180c1"/><path d="M10.56,18.31h0a.24.24,0,0,1-.18-.09L8.15,14.15c-.05-.09-.05-.18,0-.22l1-.92a.15.15,0,0,1,.13,0s.09,0,.13.09l2.63,3.59a.32.32,0,0,1,0,.27l-1.4,1.4Zm-2-4.21,2,3.73,1.09-1.1L9.24,13.45Z" transform="translate(-2.79)" style="fill:#5180c1"/><path d="M10.73,6.35a2,2,0,0,1-.48,0A2.07,2.07,0,0,1,8.63,5.12a.2.2,0,0,1,.09-.26A.21.21,0,0,1,9,5a1.86,1.86,0,0,0,1.36,1,2.24,2.24,0,0,0,1.79-.44c.88-.83,1.1-.92,1.27-.83s.13.31.09.48,0,.22,0,.27a.86.86,0,0,0,.26,0,2.45,2.45,0,0,1,1.75-.17.83.83,0,0,1,.39.48c.05.09,0,.22-.13.26s-.22,0-.26-.13a.47.47,0,0,0-.17-.22,2,2,0,0,0-1.45.18.73.73,0,0,1-.66,0c-.17-.13-.13-.35-.13-.57-.13.09-.35.3-.7.61A2.43,2.43,0,0,1,10.73,6.35Z" transform="translate(-2.79)" style="fill:#5180c1"/><path d="M13.14,7.84c-.09,0-.13,0-.18-.13a.21.21,0,0,1,.09-.26c.09,0,1-.44,1.49,0,.09.09.09.22,0,.26s-.22.09-.26,0c-.26-.26-.88,0-1,0C13.23,7.84,13.18,7.84,13.14,7.84Z" transform="translate(-2.79)" style="fill:#5180c1"/><path d="M10.91,7.84h-.09c-.18-.09-.83-.26-1.05,0a.19.19,0,0,1-.27-.27c.49-.48,1.41-.08,1.49,0a.21.21,0,0,1,.09.26S11,7.84,10.91,7.84Z" transform="translate(-2.79)" style="fill:#5180c1"/><path d="M17.91,7.93H16.29a.35.35,0,0,1-.17-.09V7.71a7,7,0,0,0,.17-1.23v-.7h0V5.61c0-.05,0-.14.05-.18s.08-.09.13-.09h1.44a.19.19,0,0,1,.18.18V7.75A.19.19,0,0,1,17.91,7.93Zm-1.35-.4h1.18V5.69h-1v.84C16.64,6.83,16.6,7.18,16.56,7.53Z" transform="translate(-2.79)" style="fill:#5180c1"/><path d="M7.8,7.93H6.18A.19.19,0,0,1,6,7.75V5.52a.19.19,0,0,1,.18-.18H7.62s.13,0,.13.09,0,.09,0,.18v.57A10.06,10.06,0,0,0,8,7.71a.27.27,0,0,1,0,.17S7.84,7.93,7.8,7.93Zm-1.41-.4H7.58a7.68,7.68,0,0,1-.13-1.4V5.69H6.39Z" transform="translate(-2.79)" style="fill:#5180c1"/><path d="M6.88,5.74h0c-.13,0-.22-.09-.18-.22C7,2.37,9.33,0,12,0s5,2.37,5.35,5.52c0,.09-.09.22-.18.22S17,5.65,17,5.56C16.69,2.63,14.58.39,12,.39S7.4,2.63,7.1,5.56C7.05,5.65,7,5.74,6.88,5.74Z" transform="translate(-2.79)" style="fill:#5180c1"/><path d="M12.57,11c-.09,0-.18,0-.18-.13a.19.19,0,0,1,.14-.26L17,8.89V7.71a.19.19,0,0,1,.18-.18.18.18,0,0,1,.17.18V9c0,.09,0,.18-.13.18L12.66,11A.16.16,0,0,1,12.57,11Z" transform="translate(-2.79)" style="fill:#5180c1"/></g></svg>