<svg id="Layer_1" data-name="Layer 1" xmlns="http://www.w3.org/2000/svg" viewBox="0 0 23.95 23.68"><g id="_947_Mask_Theatre_Drama_Film" data-name=" 947 Mask Theatre Drama Film"><path d="M20.12.71a1.56,1.56,0,1,1-1.55,1.57v0A1.55,1.55,0,0,1,20.12.71Z" transform="translate(-0.03 -0.16)" style="fill:#fff"/><path d="M3.41,21a1.15,1.15,0,1,1-1.15,1.15h0A1.15,1.15,0,0,1,3.39,21Z" transform="translate(-0.03 -0.16)" style="fill:#fff"/><path d="M13.39,5.65v.51H.52V5.65A1.53,1.53,0,0,1,2,4.14H12A1.49,1.49,0,0,1,13.39,5.65Z" transform="translate(-0.03 -0.16)" style="fill:#a1c6e9"/><path d="M21.41,7.81,23.1,14a6.81,6.81,0,0,1,.23,1.74,6.43,6.43,0,0,1-12.55,2,6.5,6.5,0,0,0,2.56-5.18V7.94l6.05-1.65a1.45,1.45,0,0,1,1.81,1,.19.19,0,0,1,0,.07Zm-1.88,10-.14-.37a1.9,1.9,0,0,0-3.62,1.15l.14.37Z" transform="translate(-0.03 -0.16)" style="fill:#a1c6e9"/><path d="M13.39,7.94v4.63a6.51,6.51,0,0,1-2.57,5.18A6.35,6.35,0,0,1,7,19,6.47,6.47,0,0,1,.52,12.57V6.16H13.39ZM8.86,13.39V13H5.05v.36A1.94,1.94,0,0,0,7,15.32a1.9,1.9,0,0,0,1.89-1.91Z" transform="translate(-0.03 -0.16)" style="fill:#fff"/><path d="M23.56,21.32a.41.41,0,0,1,0,.82.41.41,0,0,1-.41-.41h0A.41.41,0,0,1,23.56,21.32Z" transform="translate(-0.03 -0.16)" style="fill:#2d80c3"/><path d="M23,5.88a.42.42,0,0,1,.43.41.42.42,0,1,1-.84,0v0A.41.41,0,0,1,23,5.88Z" transform="translate(-0.03 -0.16)" style="fill:#2d80c3"/><path d="M14.4.16a.41.41,0,0,1,.41.41A.41.41,0,0,1,14.4,1,.41.41,0,0,1,14,.57h0A.41.41,0,0,1,14.4.16Z" transform="translate(-0.03 -0.16)" style="fill:#2d80c3"/><path d="M13.53,23a.41.41,0,0,1,.4.42.4.4,0,0,1-.42.4.42.42,0,0,1-.4-.41.41.41,0,0,1,.41-.41Z" transform="translate(-0.03 -0.16)" style="fill:#2d80c3"/><path d="M7.25,20.77a.41.41,0,1,1,0,.82.41.41,0,0,1-.41-.41h0A.41.41,0,0,1,7.25,20.77Z" transform="translate(-0.03 -0.16)" style="fill:#2d80c3"/><path d="M5,.43A.42.42,0,0,1,5.4.84a.42.42,0,0,1-.84,0v0A.41.41,0,0,1,5,.43Z" transform="translate(-0.03 -0.16)" style="fill:#2d80c3"/><path d="M.38,20.49A.42.42,0,0,1,.73,21a.42.42,0,0,1-.35.35.42.42,0,0,1,0-.83Z" transform="translate(-0.03 -0.16)" style="fill:#2d80c3"/><path d="M7,15.59a2.2,2.2,0,0,1-2.2-2.2V13A.3.3,0,0,1,5,12.74H8.86a.29.29,0,0,1,.27.28v.36a2.13,2.13,0,0,1-2.05,2.21ZM5.33,13.3v.09a1.6,1.6,0,0,0,3.2,0V13.3Z" transform="translate(-0.03 -0.16)" style="fill:#2d80c3"/><path d="M7.39,11.88H6.52a.28.28,0,0,1-.28-.27.3.3,0,0,1,.28-.28h.87a.28.28,0,0,1,.27.28A.28.28,0,0,1,7.39,11.88Z" transform="translate(-0.03 -0.16)" style="fill:#2d80c3"/><path d="M13.39,6.43H.52A.27.27,0,0,1,.2,6.21a.28.28,0,0,1,.22-.33h13a.28.28,0,0,1,.27.28C13.71,6.29,13.57,6.43,13.39,6.43Z" transform="translate(-0.03 -0.16)" style="fill:#2e81c3"/><path d="M4,10.46A1.43,1.43,0,0,1,2.53,9V9a.31.31,0,0,1,.28-.27A.29.29,0,0,1,3.08,9,.87.87,0,1,0,4.82,9h0a.31.31,0,0,1,.28-.27A.29.29,0,0,1,5.37,9,1.45,1.45,0,0,1,4,10.46Z" transform="translate(-0.03 -0.16)" style="fill:#2d80c3"/><path d="M10,10.46A1.43,1.43,0,0,1,8.53,9V9a.31.31,0,0,1,.28-.27A.29.29,0,0,1,9.08,9a.87.87,0,1,0,1.74,0h0a.31.31,0,0,1,.28-.27.29.29,0,0,1,.27.27A1.42,1.42,0,0,1,10,10.46Z" transform="translate(-0.03 -0.16)" style="fill:#2d80c3"/><path d="M15.86,19.21a.15.15,0,0,1-.13,0s-.14-.1-.14-.19l-.14-.36a2.2,2.2,0,0,1,1.42-2.75,3.52,3.52,0,0,1,.64-.09,2.2,2.2,0,0,1,2.11,1.55l.14.37V18c-.05,0-.1.14-.19.14L16,19.21Zm1.74-2.84a2.19,2.19,0,0,0-.5.09,1.59,1.59,0,0,0-1.05,2h0v.09l3.12-1v-.09A1.66,1.66,0,0,0,17.6,16.37Z" transform="translate(-0.03 -0.16)" style="fill:#2d80c3"/><path d="M16.23,15.18A.31.31,0,0,1,16,15a.34.34,0,0,1,.19-.37l.82-.22a.32.32,0,0,1,.37.18.32.32,0,0,1-.18.37l-.83.22S16.28,15.18,16.23,15.18Z" transform="translate(-0.03 -0.16)" style="fill:#2e81c3"/><path d="M17,22.46a6.67,6.67,0,0,1-6.37-4.62.29.29,0,1,1,.55-.19,6.14,6.14,0,0,0,11.77-3.52L21,7.44a1.28,1.28,0,0,0-1.51-.87l-6,1.65A.32.32,0,0,1,13.12,8V8a.32.32,0,0,1,.19-.36L19.3,6a1.75,1.75,0,0,1,2.18,1.17.19.19,0,0,1,0,.07l1.83,6.68a5.72,5.72,0,0,1,.23,1.79,6.67,6.67,0,0,1-4.94,6.46A5.77,5.77,0,0,1,17,22.46Z" transform="translate(-0.03 -0.16)" style="fill:#2d80c3"/><path d="M7,19.3A6.75,6.75,0,0,1,.24,12.57V5.65A1.8,1.8,0,0,1,2,3.87H12a1.79,1.79,0,0,1,1.79,1.78v7A6.58,6.58,0,0,1,11,18,7.07,7.07,0,0,1,7,19.3ZM2,4.42A1.23,1.23,0,0,0,.79,5.64h0v7A6.14,6.14,0,0,0,7,18.75H7a6,6,0,0,0,3.67-1.23,6.18,6.18,0,0,0,2.47-4.95V5.65a1.23,1.23,0,0,0-1.23-1.23H2Z" transform="translate(-0.03 -0.16)" style="fill:#2d80c3"/><path d="M14.72,10a.31.31,0,0,1-.28-.23.34.34,0,0,1,.19-.37l6.73-1.87a.28.28,0,0,1,.18.54h0L14.81,9.91A.11.11,0,0,1,14.72,10Z" transform="translate(-0.03 -0.16)" style="fill:#2d80c3"/><path d="M13.11,14.77a.3.3,0,0,1-.27-.28.34.34,0,0,1,.27-.32.79.79,0,0,0,.69-.36A1,1,0,0,0,14,13a.32.32,0,0,1,.18-.37.33.33,0,0,1,.37.18,1.42,1.42,0,0,1-.23,1.29,1.48,1.48,0,0,1-1.15.64Z" transform="translate(-0.03 -0.16)" style="fill:#2d80c3"/><path d="M18.89,12.94a1.22,1.22,0,0,1-.69-.19,1.65,1.65,0,0,1-.69-.87.32.32,0,0,1,.19-.36.3.3,0,0,1,.36.18.66.66,0,0,0,.41.5,1,1,0,0,0,.65.09.83.83,0,0,0,.59-1,.32.32,0,0,1,.18-.37.31.31,0,0,1,.37.19,1.36,1.36,0,0,1-.9,1.71l-.1,0A.6.6,0,0,1,18.89,12.94Z" transform="translate(-0.03 -0.16)" style="fill:#2d80c3"/><path d="M3.41,23.61a1.42,1.42,0,1,1,1.41-1.43h0A1.42,1.42,0,0,1,3.41,23.61Zm0-2.29a.87.87,0,1,0,0,1.74h0a.85.85,0,0,0,.87-.83v0A.9.9,0,0,0,3.41,21.32Z" transform="translate(-0.03 -0.16)" style="fill:#2d80c3"/><path d="M20.12,4.14a1.9,1.9,0,0,1-1.88-1.88A1.87,1.87,0,0,1,20.09.39h0A1.88,1.88,0,0,1,22,2.26a1.85,1.85,0,0,1-1.82,1.88Zm0-3.16a1.28,1.28,0,0,0-1.28,1.28h0a1.33,1.33,0,0,0,1.28,1.29A1.29,1.29,0,0,0,20.35,1,.89.89,0,0,0,20.12,1Z" transform="translate(-0.03 -0.16)" style="fill:#2c80c3"/></g></svg>