<svg id="Layer_1" data-name="Layer 1" xmlns="http://www.w3.org/2000/svg" viewBox="0 0 24 23.96"><g id="F527_Car_important_star_vehicles" data-name="F527, Car, important, star, vehicles"><path d="M19.73.6A3.76,3.76,0,1,1,16,4.35,3.75,3.75,0,0,1,19.73.6Zm.84,4,1.39-1H20.25L19.73,2l-.52,1.63H17.49l1.4,1-.6,1.64,1.4-1,1.39,1Z" transform="translate(0 -0.08)" style="fill:#a1c6e9"/><polygon points="21.96 3.51 20.57 4.55 21.09 6.19 19.69 5.19 18.29 6.19 18.85 4.55 17.45 3.51 19.17 3.51 19.69 1.88 20.25 3.51 21.96 3.51" style="fill:#f2cb30"/><rect x="5.95" y="5.51" width="6.27" height="1.96" style="fill:#a1c6e9"/><path d="M3.63,16.49a1.56,1.56,0,0,1,0,3.12,1.59,1.59,0,0,1-1.55-1.56A1.56,1.56,0,0,1,3.63,16.49Z" transform="translate(0 -0.08)" style="fill:#fff"/><path d="M18.49,14.93V21.2H.48V14.93h18Zm-1.6,3.16a1.56,1.56,0,1,0-1.56,1.56A1.56,1.56,0,0,0,16.89,18.09Zm-11.7,0a1.56,1.56,0,0,0-1.56-1.56,1.59,1.59,0,0,0-1.55,1.56,1.56,1.56,0,0,0,1.55,1.56A1.59,1.59,0,0,0,5.19,18.09Z" transform="translate(0 -0.08)" style="fill:#fff"/><polygon points="15.33 7.43 17.29 14.86 1.68 14.86 3.63 7.43 5.95 7.43 12.22 7.43 15.33 7.43" style="fill:#fff"/><rect x="14.18" y="21.12" width="2.36" height="2.36" style="fill:#a1c6e9"/><path d="M15.33,16.49a1.56,1.56,0,1,1-1.55,1.56A1.59,1.59,0,0,1,15.33,16.49Z" transform="translate(0 -0.08)" style="fill:#fff"/><rect x="2.44" y="21.12" width="2.36" height="2.36" style="fill:#a1c6e9"/><path d="M4.79,24a.53.53,0,0,1-.52-.52V21.16a.52.52,0,1,1,1,0v2.36A.53.53,0,0,1,4.79,24Z" transform="translate(0 -0.08)" style="fill:#2c80c3"/><path d="M2.44,24a.53.53,0,0,1-.52-.52V21.16a.52.52,0,0,1,1,0v2.36A.53.53,0,0,1,2.44,24Z" transform="translate(0 -0.08)" style="fill:#2c80c3"/><path d="M16.53,24a.53.53,0,0,1-.52-.52V21.16a.52.52,0,1,1,1,0v2.36A.59.59,0,0,1,16.53,24Z" transform="translate(0 -0.08)" style="fill:#2c80c3"/><path d="M14.18,24a.53.53,0,0,1-.52-.52V21.16a.52.52,0,1,1,1,0v2.36A.56.56,0,0,1,14.18,24Z" transform="translate(0 -0.08)" style="fill:#2c80c3"/><path d="M18.49,21.68H.52A.53.53,0,0,1,0,21.16V14.93a.53.53,0,0,1,.52-.52H1.68a.52.52,0,1,1,0,1H1v5.27H18V15.45h-.68a.52.52,0,0,1,0-1h1.16a.53.53,0,0,1,.52.52V21.2A.49.49,0,0,1,18.49,21.68Z" transform="translate(0 -0.08)" style="fill:#2c80c3"/><path d="M17.29,15.45H1.68a.49.49,0,0,1-.4-.2.56.56,0,0,1-.08-.44l2-7.42A.48.48,0,0,1,3.63,7H6a.52.52,0,0,1,0,1H4L2.36,14.49H16.69L15,8H12.22a.52.52,0,1,1,0-1h3.11a.48.48,0,0,1,.48.36l2,7.46a.56.56,0,0,1-.08.44A.49.49,0,0,1,17.29,15.45Z" transform="translate(0 -0.08)" style="fill:#2c80c3"/><path d="M12.22,8H6a.53.53,0,0,1-.52-.52v-2A.53.53,0,0,1,6,5h6.27a.53.53,0,0,1,.52.52v2A.56.56,0,0,1,12.22,8ZM6.47,7h5.27v-1H6.47Z" transform="translate(0 -0.08)" style="fill:#2c80c3"/><path d="M3.63,20.13a2.08,2.08,0,1,1,2.08-2.08A2.12,2.12,0,0,1,3.63,20.13Zm0-3.12a1.08,1.08,0,1,0,1.08,1.08A1.13,1.13,0,0,0,3.63,17Z" transform="translate(0 -0.08)" style="fill:#2c80c3"/><path d="M15.33,20.13a2.08,2.08,0,1,1,2.08-2.08A2.07,2.07,0,0,1,15.33,20.13Zm0-3.12a1.08,1.08,0,1,0,1.08,1.08A1.07,1.07,0,0,0,15.33,17Z" transform="translate(0 -0.08)" style="fill:#2c80c3"/><path d="M12.22,18.57H6.75a.52.52,0,0,1,0-1h5.47a.53.53,0,0,1,.52.52A.56.56,0,0,1,12.22,18.57Z" transform="translate(0 -0.08)" style="fill:#2c80c3"/><path d="M23.48,24H.52a.52.52,0,0,1,0-1h23a.53.53,0,0,1,.52.52A.59.59,0,0,1,23.48,24Z" transform="translate(0 -0.08)" style="fill:#2c80c3"/><path d="M19.73,8.58A4.25,4.25,0,1,1,24,4.31,4.29,4.29,0,0,1,19.73,8.58Zm0-7.5A3.24,3.24,0,1,0,23,4.31,3.22,3.22,0,0,0,19.73,1.08Z" transform="translate(0 -0.08)" style="fill:#2c80c3"/><path d="M21.08,6.79a.57.57,0,0,1-.27-.08l-1.12-.8-1.12.8a.54.54,0,0,1-.6,0,.59.59,0,0,1-.2-.56l.44-1.32L17.09,4A.57.57,0,0,1,17,3.47a.52.52,0,0,1,.48-.36h1.36l.44-1.31a.52.52,0,0,1,.48-.36.47.47,0,0,1,.48.36l.44,1.31H22a.5.5,0,0,1,.48.36.44.44,0,0,1-.2.56l-1.12.8.44,1.32a.46.46,0,0,1-.2.56A.94.94,0,0,1,21.08,6.79ZM19,4.11l.16.12a.59.59,0,0,1,.2.56l-.08.2.16-.12a.54.54,0,0,1,.6,0l.16.12-.08-.2a.46.46,0,0,1,.2-.56l.16-.12h-.2a.5.5,0,0,1-.48-.36l0-.2,0,.2a.52.52,0,0,1-.48.36Z" transform="translate(0 -0.08)" style="fill:#2c80c3"/></g></svg>