<svg id="Layer_1" data-name="Layer 1" xmlns="http://www.w3.org/2000/svg" viewBox="0 0 24 23.84"><g id="D528_Avatar_body_description_human_profile" data-name="D528 Avatar body description human profile"><path d="M22.44,2.11h-4.8a1.14,1.14,0,0,0-1.12,1.11v6.7A1.14,1.14,0,0,0,17.64,11H22.4a1.14,1.14,0,0,0,1.12-1.11V3.22a1.08,1.08,0,0,0-1.05-1.11Z" transform="translate(0 -0.08)" style="fill:#a1c6e9"/><path d="M20,4.09a1,1,0,1,1-1,1A1,1,0,0,1,20,4.09Z" transform="translate(0 -0.08)" style="fill:#fff"/><path d="M7.56,23.42H3v-6H.52V11a3,3,0,0,1,3-3h8a3,3,0,0,1,3,3v6.45H12v6Z" transform="translate(0 -0.08)" style="fill:#a1c6e9"/><path d="M7.56.64a3,3,0,1,1-3,3,3,3,0,0,1,3-3Z" transform="translate(0 -0.08)" style="fill:#fff"/><path d="M12,23.92H3a.53.53,0,0,1-.52-.51V17.92h-2A.52.52,0,0,1,0,17.44V11A3.47,3.47,0,0,1,3.48,7.57h8A3.47,3.47,0,0,1,15,11v6.48a.54.54,0,0,1-.52.52h-2v5.47C12.56,23.65,12.32,23.92,12,23.92Zm-8.44-1h8V17.47a.53.53,0,0,1,.52-.51h2V11A2.48,2.48,0,0,0,11.6,8.56H3.52A2.48,2.48,0,0,0,1,11v5.92H3a.53.53,0,0,1,.52.51Z" transform="translate(0 -0.08)" style="fill:#2c80c3"/><path d="M7.56,7.06a3.49,3.49,0,1,1,3.52-3.49A3.49,3.49,0,0,1,7.56,7.06Zm0-5.94a2.5,2.5,0,1,0,2.52,2.49A2.5,2.5,0,0,0,7.56,1.12Z" transform="translate(0 -0.08)" style="fill:#2c80c3"/><path d="M7.56,23.92a.53.53,0,0,1-.56-.5v-5.5a.52.52,0,0,1,1,0v5.5A.59.59,0,0,1,7.56,23.92Z" transform="translate(0 -0.08)" style="fill:#5080c1"/><path d="M22.44,11.53h-4.8A1.59,1.59,0,0,1,16,10V3.22a1.6,1.6,0,0,1,1.6-1.59h4.8A1.6,1.6,0,0,1,24,3.22v6.7a1.57,1.57,0,0,1-1.53,1.61Zm-4.8-8.91a.58.58,0,0,0-.6.58V9.92a.61.61,0,0,0,.6.59H22.4a.61.61,0,0,0,.6-.59V3.22a.62.62,0,0,0-.6-.6Z" transform="translate(0 -0.08)" style="fill:#2c80c3"/><path d="M20,6.58a1.51,1.51,0,1,1,1.52-1.5A1.52,1.52,0,0,1,20,6.58Zm0-2a.52.52,0,0,0-.52.52.52.52,0,0,0,1,0A.5.5,0,0,0,20,4.6Z" transform="translate(0 -0.08)" style="fill:#2c80c3"/><path d="M21.56,9.55h-3A.52.52,0,0,1,18,9.07V9a.52.52,0,0,1,.52-.52h3A.53.53,0,0,1,22,9,.57.57,0,0,1,21.56,9.55Z" transform="translate(0 -0.08)" style="fill:#2c80c3"/></g></svg>